<mxfile host="app.diagrams.net" modified="2024-01-18T02:53:54.688Z" agent="Mozilla/5.0 (Windows NT 10.0; Win64; x64) AppleWebKit/537.36 (KHTML, like Gecko) Chrome/120.0.0.0 Safari/537.36" etag="6gjuUDOvmkXH93KRDwix" version="22.1.21" type="github">
  <diagram name="第 1 页" id="rcMaGIEePDRUQRhHuMOg">
    <mxGraphModel dx="1050" dy="530" grid="1" gridSize="10" guides="1" tooltips="1" connect="1" arrows="1" fold="1" page="1" pageScale="1" pageWidth="1100" pageHeight="850" math="0" shadow="0">
      <root>
        <mxCell id="0" />
        <mxCell id="1" parent="0" />
        <mxCell id="dgvK6APBRVAmvV5dNvMb-1" value="次卧" style="whiteSpace=wrap;html=1;aspect=fixed;" vertex="1" parent="1">
          <mxGeometry x="238" y="335" width="190" height="190" as="geometry" />
        </mxCell>
        <mxCell id="dgvK6APBRVAmvV5dNvMb-2" value="" style="curved=1;endArrow=classic;html=1;rounded=0;" edge="1" parent="1">
          <mxGeometry width="50" height="50" relative="1" as="geometry">
            <mxPoint x="88" y="492" as="sourcePoint" />
            <mxPoint x="238" y="432" as="targetPoint" />
            <Array as="points">
              <mxPoint x="238" y="482" />
              <mxPoint x="188" y="432" />
            </Array>
          </mxGeometry>
        </mxCell>
        <mxCell id="dgvK6APBRVAmvV5dNvMb-3" value="入户光纤" style="edgeLabel;html=1;align=center;verticalAlign=middle;resizable=0;points=[];" vertex="1" connectable="0" parent="dgvK6APBRVAmvV5dNvMb-2">
          <mxGeometry x="-0.7947" y="-1" relative="1" as="geometry">
            <mxPoint x="22" y="-19" as="offset" />
          </mxGeometry>
        </mxCell>
        <mxCell id="dgvK6APBRVAmvV5dNvMb-4" value="主卧" style="whiteSpace=wrap;html=1;aspect=fixed;" vertex="1" parent="1">
          <mxGeometry x="557" y="335" width="190" height="190" as="geometry" />
        </mxCell>
        <mxCell id="dgvK6APBRVAmvV5dNvMb-5" value="客厅" style="whiteSpace=wrap;html=1;aspect=fixed;" vertex="1" parent="1">
          <mxGeometry x="557" y="41" width="190" height="190" as="geometry" />
        </mxCell>
        <mxCell id="dgvK6APBRVAmvV5dNvMb-7" value="" style="endArrow=classic;startArrow=classic;html=1;rounded=0;exitX=1;exitY=0.25;exitDx=0;exitDy=0;" edge="1" parent="1" source="dgvK6APBRVAmvV5dNvMb-1">
          <mxGeometry width="50" height="50" relative="1" as="geometry">
            <mxPoint x="510" y="430" as="sourcePoint" />
            <mxPoint x="560" y="380" as="targetPoint" />
          </mxGeometry>
        </mxCell>
        <mxCell id="dgvK6APBRVAmvV5dNvMb-8" value="" style="endArrow=classic;startArrow=classic;html=1;rounded=0;exitX=1;exitY=0.75;exitDx=0;exitDy=0;" edge="1" parent="1" source="dgvK6APBRVAmvV5dNvMb-1">
          <mxGeometry width="50" height="50" relative="1" as="geometry">
            <mxPoint x="507" y="525" as="sourcePoint" />
            <mxPoint x="557" y="475" as="targetPoint" />
          </mxGeometry>
        </mxCell>
        <mxCell id="dgvK6APBRVAmvV5dNvMb-9" value="" style="endArrow=classic;startArrow=classic;html=1;rounded=0;exitX=1;exitY=0.5;exitDx=0;exitDy=0;" edge="1" parent="1" source="dgvK6APBRVAmvV5dNvMb-1">
          <mxGeometry width="50" height="50" relative="1" as="geometry">
            <mxPoint x="507" y="475" as="sourcePoint" />
            <mxPoint x="557" y="425" as="targetPoint" />
          </mxGeometry>
        </mxCell>
        <mxCell id="dgvK6APBRVAmvV5dNvMb-10" value="" style="shape=flexArrow;endArrow=classic;startArrow=classic;html=1;rounded=0;exitX=0.191;exitY=-0.018;exitDx=0;exitDy=0;exitPerimeter=0;entryX=0.207;entryY=1.007;entryDx=0;entryDy=0;entryPerimeter=0;" edge="1" parent="1" source="dgvK6APBRVAmvV5dNvMb-4" target="dgvK6APBRVAmvV5dNvMb-5">
          <mxGeometry width="100" height="100" relative="1" as="geometry">
            <mxPoint x="490" y="350" as="sourcePoint" />
            <mxPoint x="590" y="250" as="targetPoint" />
          </mxGeometry>
        </mxCell>
      </root>
    </mxGraphModel>
  </diagram>
</mxfile>
